<?xml version="1.0" standalone="no"?>
<!DOCTYPE svg PUBLIC "-//W3C//DTD SVG 20010904//EN"
 "http://www.w3.org/TR/2001/REC-SVG-20010904/DTD/svg10.dtd">
<svg version="1.0" xmlns="http://www.w3.org/2000/svg"
 width="710.000000pt" height="193.000000pt" viewBox="0 0 710.000000 193.000000"
 preserveAspectRatio="xMidYMid meet">

<g transform="translate(0.000000,193.000000) scale(0.100000,-0.100000)"
fill="#000000" stroke="none">
<path d="M1944 1772 c-199 -69 -347 -276 -331 -464 8 -89 30 -134 78 -158 102
-53 267 0 452 143 79 61 107 97 107 139 -1 53 -16 54 -71 4 -64 -58 -197 -147
-264 -177 -36 -16 -70 -23 -123 -23 -67 -1 -76 1 -94 24 -44 54 10 208 108
306 58 58 157 114 200 114 26 0 26 -1 11 -18 -32 -35 -19 -102 19 -102 18 0
32 12 54 47 33 52 37 90 15 133 -28 54 -72 62 -161 32z"/>
<path d="M1845 958 c7 -110 10 -121 108 -393 55 -154 102 -283 106 -287 6 -7
2986 523 2996 534 7 6 37 199 33 204 -3 2 -3054 54 -3191 54 l-59 0 7 -112z"/>
</g>
</svg>
